<svg xmlns="http://www.w3.org/2000/svg" xmlns:xlink="http://www.w3.org/1999/xlink" width="237" height="240" viewBox="0 0 237 240">
  <defs>
    <filter id="Ellipse_8" x="50" y="0" width="140" height="140" filterUnits="userSpaceOnUse">
      <feOffset dx="1" input="SourceAlpha"/>
      <feGaussianBlur stdDeviation="16" result="blur"/>
      <feFlood flood-opacity="0.161"/>
      <feComposite operator="in" in2="blur"/>
      <feComposite in="SourceGraphic"/>
    </filter>
    <filter id="Ellipse_9" x="97" y="48" width="140" height="140" filterUnits="userSpaceOnUse">
      <feOffset input="SourceAlpha"/>
      <feGaussianBlur stdDeviation="16" result="blur-2"/>
      <feFlood flood-opacity="0.161"/>
      <feComposite operator="in" in2="blur-2"/>
      <feComposite in="SourceGraphic"/>
    </filter>
    <filter id="Ellipse_10" x="49" y="99" width="140" height="141" filterUnits="userSpaceOnUse">
      <feOffset input="SourceAlpha"/>
      <feGaussianBlur stdDeviation="16" result="blur-3"/>
      <feFlood flood-opacity="0.161"/>
      <feComposite operator="in" in2="blur-3"/>
      <feComposite in="SourceGraphic"/>
    </filter>
    <filter id="Ellipse_11" x="0" y="48" width="140" height="140" filterUnits="userSpaceOnUse">
      <feOffset input="SourceAlpha"/>
      <feGaussianBlur stdDeviation="16" result="blur-4"/>
      <feFlood flood-opacity="0.161"/>
      <feComposite operator="in" in2="blur-4"/>
      <feComposite in="SourceGraphic"/>
    </filter>
  </defs>
  <g id="Group_4" data-name="Group 4" transform="translate(-691 -57)">
    <g id="Component_4_1" data-name="Component 4 – 1" transform="translate(739 105)">
      <g id="Ellipse_6" data-name="Ellipse 6" transform="translate(9 8)" fill="#fff" stroke="#707070" stroke-width="1">
        <circle cx="62" cy="62" r="62" stroke="none"/>
        <circle cx="62" cy="62" r="61.5" fill="none"/>
      </g>
      <g id="Ellipse_7" data-name="Ellipse 7" transform="translate(37 36)" fill="#fff" stroke="#707070" stroke-width="1">
        <circle cx="34" cy="34" r="34" stroke="none"/>
        <circle cx="34" cy="34" r="33.5" fill="none"/>
      </g>
      <g transform="matrix(1, 0, 0, 1, -48, -48)" filter="url(#Ellipse_8)">
        <circle id="Ellipse_8-2" data-name="Ellipse 8" cx="22" cy="22" r="22" transform="translate(97 48)" fill="#fff"/>
      </g>
      <g transform="matrix(1, 0, 0, 1, -48, -48)" filter="url(#Ellipse_9)">
        <circle id="Ellipse_9-2" data-name="Ellipse 9" cx="22" cy="22" r="22" transform="translate(145 96)" fill="#fff"/>
      </g>
      <g transform="matrix(1, 0, 0, 1, -48, -48)" filter="url(#Ellipse_10)">
        <ellipse id="Ellipse_10-2" data-name="Ellipse 10" cx="22" cy="22.5" rx="22" ry="22.5" transform="translate(97 147)" fill="#fff"/>
      </g>
      <g transform="matrix(1, 0, 0, 1, -48, -48)" filter="url(#Ellipse_11)">
        <circle id="Ellipse_11-2" data-name="Ellipse 11" cx="22" cy="22" r="22" transform="translate(48 96)" fill="#fff"/>
      </g>
      <text id="xtreme." transform="translate(58 74)" fill="#707070" font-size="6" font-family="Sitka Small" font-weight="700"><tspan x="0" y="0">xtreme.</tspan></text>
      <text id="_230" data-name="230" transform="translate(62 18)" fill="#7389ff" font-size="9" font-family="SegoeUI-Bold, Segoe UI" font-weight="700"><tspan x="0" y="0">230</tspan></text>
      <text id="_03k" data-name="03k" transform="translate(110 68)" fill="#57d057" font-size="9" font-family="SegoeUI-Bold, Segoe UI" font-weight="700"><tspan x="0" y="0">03k</tspan></text>
      <text id="_120_" data-name="120+" transform="translate(59 118)" fill="#cb5ad7" font-size="9" font-family="SegoeUI-Bold, Segoe UI" font-weight="700"><tspan x="0" y="0">120+</tspan></text>
      <text id="_16k" data-name="16k" transform="translate(13 68)" fill="#f0b544" font-size="9" font-family="SegoeUI-Bold, Segoe UI" font-weight="700"><tspan x="0" y="0">16k</tspan></text>
      <text id="Offices" transform="translate(62 27)" fill="rgba(124,124,124,0.64)" font-size="5" font-family="SegoeUI, Segoe UI"><tspan x="0" y="0">Offices</tspan></text>
      <text id="Workers" transform="translate(108 77)" fill="rgba(124,124,124,0.64)" font-size="5" font-family="SegoeUI, Segoe UI"><tspan x="0" y="0">Workers</tspan></text>
      <text id="Projects" transform="translate(61 127)" fill="rgba(124,124,124,0.64)" font-size="5" font-family="SegoeUI, Segoe UI"><tspan x="0" y="0">Projects</tspan></text>
      <text id="Customers" transform="translate(8 77)" fill="rgba(124,124,124,0.64)" font-size="5" font-family="SegoeUI, Segoe UI"><tspan x="0" y="0">Customers</tspan></text>
    </g>
  </g>
</svg>
